PathFileType	4	(X/Y/Z)	S1_rest_slow_left.trc
DataRate	CameraRate	NumFrames	NumMarkers	Units	OrigDataRate	OrigDataStartFrame	OrigNumFrames
250.00	250.00	8	18	mm	250.00	18092	36183
Frame#	Time	c7	r_should	l_should	clavicle	r_upa	r_elb_l	r_elb_m	r_low	r_wri_l	r_wri_m	r_met	l_upa	l_elb_l	l_elb_m	l_low	l_wri_l	l_wri_m	l_met
	X1	Y1	Z1	X2	Y2	Z2	X3	Y3	Z3	X4	Y4	Z4	X5	Y5	Z5	X6	Y6	Z6	X7	Y7	Z7	X8	Y8	Z8	X9	Y9	Z9	X10	Y10	Z10	X11	Y11	Z11	X12	Y12	Z12	X13	Y13	Z13	X14	Y14	Z14	X15	Y15	Z15	X16	Y16	Z16	X17	Y17	Z17	X18	Y18	Z18
18092	72.36400	956.52289	1418.16394	174.55806	1028.75977	1358.15173	336.72681	976.38263	1369.08984	2.88100	1094.46252	1306.19763	156.75122	1049.42676	1152.93530	409.68185	1047.10913	1070.98413	435.96664	982.74005	1033.91089	379.97055	1101.53650	951.46057	435.61935	1150.30872	840.26227	431.65637	1076.15112	817.94592	421.79544	1154.14026	763.17548	462.49731	992.11029	1156.42041	-52.54342	1002.12134	1089.64966	-67.67078	1006.11554	1067.78259	34.37713	1095.32739	1118.95752	-65.95565	1190.84619	1169.95532	-43.20693	1196.54846	1160.36511	19.38787	nan	nan	nan
18093	72.36800	956.51917	1418.15710	174.57205	1028.73169	1358.14868	336.74249	976.70526	1368.73364	3.07631	1094.46570	1306.19275	156.77968	1049.38501	1152.94434	409.71515	1047.06226	1070.98938	436.00864	982.70471	1033.90820	380.00269	1101.49841	951.46124	435.66769	1150.26453	840.27954	431.72961	1076.10498	817.94611	421.85861	1154.08728	763.18848	462.58264	992.03058	1156.41138	-52.53580	1002.03705	1089.59131	-67.67015	1006.00793	1067.73694	34.32829	1095.37390	1118.64832	-66.01633	1185.89465	1172.60278	-49.00783	1196.74915	1159.72656	19.33529	1269.63794	1179.85974	-52.02291
18094	72.37200	956.51373	1418.15381	174.59015	1028.70947	1358.15088	336.75882	976.35089	1369.23291	2.83202	1094.47070	1306.19031	156.79839	1049.34814	1152.95190	409.74838	1047.02405	1070.98987	436.04785	982.66888	1033.90906	380.03833	1101.45935	951.46167	435.70215	1150.22815	840.29315	431.80502	1076.06580	817.94855	421.92310	1154.04236	763.20636	462.67084	991.94904	1156.40942	-52.52708	1001.94763	1089.53125	-67.66035	1005.89880	1067.68042	34.28717	1095.42603	1118.32666	-66.06306	1193.66016	1167.27209	-40.98515	1197.04639	1159.11426	19.26145	nan	nan	nan
18095	72.37600	956.51086	1418.15759	174.60004	1028.69031	1358.15942	336.77621	976.28839	1369.36035	2.76952	1094.47339	1306.18811	156.81619	1049.31714	1152.94775	409.76395	1046.98108	1070.98633	436.06909	982.63940	1033.90698	380.06638	1101.42700	951.46191	435.74823	1150.19299	840.30255	431.86807	1076.03833	817.95856	421.97592	1153.99780	763.21875	462.74933	991.87482	1156.41968	-52.52503	1001.86322	1089.47522	-67.64805	1005.77856	1067.63086	34.25529	1095.47668	1117.98608	-66.09100	1195.86792	1165.43762	-39.02438	1197.35620	1158.49512	19.17044	nan	nan	nan
18096	72.38000	956.51184	1418.16406	174.60220	1028.67603	1358.16211	336.78775	976.52734	1369.10986	2.89777	1094.47729	1306.18213	156.82663	1049.28149	1152.93848	409.77054	1046.94690	1070.98413	436.09540	982.61462	1033.91345	380.09064	1101.40479	951.45166	435.77780	1150.15723	840.30328	431.91791	1076.00757	817.97351	422.01669	1153.96680	763.22748	462.81927	991.80066	1156.43213	-52.53352	1001.78955	1089.42603	-67.63707	1005.67676	1067.59607	34.21683	1095.52649	1117.64856	-66.12632	1196.69592	1164.46948	-38.58390	1197.64331	1157.85608	19.08912	nan	nan	nan
18097	72.38400	956.51282	1418.17139	174.60204	1028.66492	1358.16064	336.79922	977.06360	1368.47791	3.22575	1094.48328	1306.17981	156.84250	1049.25037	1152.93872	409.78967	1046.96924	1071.10132	436.20804	982.59222	1033.92126	380.11456	1101.39062	951.43176	435.80908	1150.12610	840.30878	431.97363	1075.98071	817.97638	422.05197	1153.93518	763.23029	462.88181	991.73236	1156.44421	-52.54342	1001.71234	1089.38867	-67.62051	1005.57043	1067.56091	34.16650	1095.56555	1117.30054	-66.16592	1197.19336	1163.70581	-38.50574	1197.96497	1157.21350	19.02025	nan	nan	nan
18098	72.38800	956.51154	1418.17407	174.60938	1028.64600	1358.15759	336.80957	977.22278	1368.32178	3.31151	1094.48669	1306.18018	156.86090	1049.21899	1152.93494	409.80399	1047.01086	1071.24207	436.33734	982.56470	1033.92627	380.13135	1101.38684	951.40741	435.83850	1150.09314	840.31122	432.02548	1075.95068	817.97406	422.08154	1153.90076	763.22675	462.94006	991.66107	1156.45361	-52.53282	1001.62671	1089.35217	-67.60098	1005.44690	1067.52441	34.11347	1095.59058	1116.96252	-66.21078	1197.57935	1162.98840	-38.52090	1198.29346	1156.54541	18.94548	nan	nan	nan
18099	72.39200	956.50610	1418.17102	174.61461	1028.62329	1358.15198	336.82147	977.28784	1368.28662	3.33709	1094.48865	1306.18616	156.88101	1049.19312	1152.93054	409.81516	1046.93750	1071.17529	436.28674	982.52991	1033.92688	380.14307	1101.38477	951.39368	435.86368	1150.06409	840.31122	432.07443	1075.92151	817.96631	422.11365	1153.86462	763.22400	462.99826	991.58801	1156.45276	-52.51757	1001.53888	1089.30737	-67.58538	1005.31067	1067.47559	34.06688	1095.61670	1116.65088	-66.26952	1197.94080	1162.25586	-38.56097	1198.59375	1155.88306	18.87199	nan	nan	nan
